<mxfile host="app.diagrams.net" agent="Mozilla/5.0 (X11; Linux x86_64) AppleWebKit/537.36 (KHTML, like Gecko) Chrome/134.0.0.0 Safari/537.36" version="26.1.1">
  <diagram name="Page-1" id="yD7A4Ur1ljaylDGLr1X2">
    <mxGraphModel dx="1368" dy="794" grid="1" gridSize="10" guides="1" tooltips="1" connect="1" arrows="1" fold="1" page="1" pageScale="1" pageWidth="850" pageHeight="1100" math="0" shadow="0">
      <root>
        <mxCell id="0" />
        <mxCell id="1" parent="0" />
        <mxCell id="6PC8tyypkYT5ATof5jHP-21" value="Trip data" style="swimlane;fontStyle=0;childLayout=stackLayout;horizontal=1;startSize=26;fillColor=none;horizontalStack=0;resizeParent=1;resizeParentMax=0;resizeLast=0;collapsible=1;marginBottom=0;html=1;" vertex="1" parent="1">
          <mxGeometry x="60" y="110" width="160" height="130" as="geometry" />
        </mxCell>
        <mxCell id="6PC8tyypkYT5ATof5jHP-22" value="Start Date" style="text;strokeColor=none;fillColor=none;align=left;verticalAlign=top;spacingLeft=4;spacingRight=4;overflow=hidden;rotatable=0;points=[[0,0.5],[1,0.5]];portConstraint=eastwest;whiteSpace=wrap;html=1;" vertex="1" parent="6PC8tyypkYT5ATof5jHP-21">
          <mxGeometry y="26" width="160" height="26" as="geometry" />
        </mxCell>
        <mxCell id="6PC8tyypkYT5ATof5jHP-23" value="End Date" style="text;strokeColor=none;fillColor=none;align=left;verticalAlign=top;spacingLeft=4;spacingRight=4;overflow=hidden;rotatable=0;points=[[0,0.5],[1,0.5]];portConstraint=eastwest;whiteSpace=wrap;html=1;" vertex="1" parent="6PC8tyypkYT5ATof5jHP-21">
          <mxGeometry y="52" width="160" height="26" as="geometry" />
        </mxCell>
        <mxCell id="6PC8tyypkYT5ATof5jHP-24" value="Origin" style="text;strokeColor=none;fillColor=none;align=left;verticalAlign=top;spacingLeft=4;spacingRight=4;overflow=hidden;rotatable=0;points=[[0,0.5],[1,0.5]];portConstraint=eastwest;whiteSpace=wrap;html=1;" vertex="1" parent="6PC8tyypkYT5ATof5jHP-21">
          <mxGeometry y="78" width="160" height="26" as="geometry" />
        </mxCell>
        <mxCell id="6PC8tyypkYT5ATof5jHP-25" value="Destination" style="text;strokeColor=none;fillColor=none;align=left;verticalAlign=top;spacingLeft=4;spacingRight=4;overflow=hidden;rotatable=0;points=[[0,0.5],[1,0.5]];portConstraint=eastwest;whiteSpace=wrap;html=1;" vertex="1" parent="6PC8tyypkYT5ATof5jHP-21">
          <mxGeometry y="104" width="160" height="26" as="geometry" />
        </mxCell>
        <UserObject label="&lt;font style=&quot;font-size: 17px;&quot;&gt;User Input/Travel requirements&lt;/font&gt;" treeRoot="1" id="6PC8tyypkYT5ATof5jHP-26">
          <mxCell style="whiteSpace=wrap;html=1;align=center;treeFolding=1;treeMoving=1;newEdgeStyle={&quot;edgeStyle&quot;:&quot;elbowEdgeStyle&quot;,&quot;startArrow&quot;:&quot;none&quot;,&quot;endArrow&quot;:&quot;none&quot;};fillColor=#d5e8d4;strokeColor=#82b366;" vertex="1" parent="1">
            <mxGeometry x="30" y="390" width="250" height="60" as="geometry" />
          </mxCell>
        </UserObject>
        <UserObject label="&lt;font style=&quot;font-size: 15px;&quot;&gt;Parsing LLM&lt;/font&gt;" treeRoot="1" id="6PC8tyypkYT5ATof5jHP-27">
          <mxCell style="whiteSpace=wrap;html=1;align=center;treeFolding=1;treeMoving=1;newEdgeStyle={&quot;edgeStyle&quot;:&quot;elbowEdgeStyle&quot;,&quot;startArrow&quot;:&quot;none&quot;,&quot;endArrow&quot;:&quot;none&quot;};fillColor=#f8cecc;strokeColor=#b85450;" vertex="1" parent="1">
            <mxGeometry x="80" y="290" width="120" height="60" as="geometry" />
          </mxCell>
        </UserObject>
        <mxCell id="6PC8tyypkYT5ATof5jHP-36" value="" style="edgeStyle=segmentEdgeStyle;endArrow=classic;html=1;curved=0;rounded=0;endSize=8;startSize=8;exitX=0.4;exitY=0;exitDx=0;exitDy=0;exitPerimeter=0;entryX=0.5;entryY=1;entryDx=0;entryDy=0;" edge="1" parent="1" source="6PC8tyypkYT5ATof5jHP-26" target="6PC8tyypkYT5ATof5jHP-27">
          <mxGeometry width="50" height="50" relative="1" as="geometry">
            <mxPoint x="220" y="380" as="sourcePoint" />
            <mxPoint x="270" y="330" as="targetPoint" />
          </mxGeometry>
        </mxCell>
        <mxCell id="6PC8tyypkYT5ATof5jHP-39" value="" style="edgeStyle=none;orthogonalLoop=1;jettySize=auto;html=1;rounded=0;exitX=0.5;exitY=0;exitDx=0;exitDy=0;" edge="1" parent="1" source="6PC8tyypkYT5ATof5jHP-27" target="6PC8tyypkYT5ATof5jHP-21">
          <mxGeometry width="80" relative="1" as="geometry">
            <mxPoint x="430" y="350" as="sourcePoint" />
            <mxPoint x="510" y="350" as="targetPoint" />
            <Array as="points" />
          </mxGeometry>
        </mxCell>
        <mxCell id="6PC8tyypkYT5ATof5jHP-40" value="" style="swimlane;startSize=80;" vertex="1" parent="1">
          <mxGeometry x="330" y="150" width="200" height="360" as="geometry" />
        </mxCell>
        <UserObject label="&lt;font style=&quot;font-size: 15px;&quot;&gt;&lt;b&gt;Destination Details&amp;nbsp;&lt;/b&gt;&lt;/font&gt;" treeRoot="1" id="6PC8tyypkYT5ATof5jHP-41">
          <mxCell style="whiteSpace=wrap;html=1;align=center;treeFolding=1;treeMoving=1;newEdgeStyle={&quot;edgeStyle&quot;:&quot;elbowEdgeStyle&quot;,&quot;startArrow&quot;:&quot;none&quot;,&quot;endArrow&quot;:&quot;none&quot;};fillColor=#fff2cc;strokeColor=#d6b656;" vertex="1" collapsed="1" parent="6PC8tyypkYT5ATof5jHP-40">
            <mxGeometry x="10" y="12" width="180" height="48" as="geometry" />
          </mxCell>
        </UserObject>
        <UserObject label="Python Framework for Scraping details of destination (E.g. Sites to be visited, recommended places, activities, etc.)" treeRoot="1" id="6PC8tyypkYT5ATof5jHP-44">
          <mxCell style="whiteSpace=wrap;html=1;align=center;treeFolding=1;treeMoving=1;newEdgeStyle={&quot;edgeStyle&quot;:&quot;elbowEdgeStyle&quot;,&quot;startArrow&quot;:&quot;none&quot;,&quot;endArrow&quot;:&quot;none&quot;};" vertex="1" parent="6PC8tyypkYT5ATof5jHP-40">
            <mxGeometry x="10" y="90" width="180" height="60" as="geometry" />
          </mxCell>
        </UserObject>
        <UserObject label="Vector Embedding&amp;nbsp;" treeRoot="1" id="6PC8tyypkYT5ATof5jHP-45">
          <mxCell style="whiteSpace=wrap;html=1;align=center;treeFolding=1;treeMoving=1;newEdgeStyle={&quot;edgeStyle&quot;:&quot;elbowEdgeStyle&quot;,&quot;startArrow&quot;:&quot;none&quot;,&quot;endArrow&quot;:&quot;none&quot;};" vertex="1" parent="6PC8tyypkYT5ATof5jHP-40">
            <mxGeometry x="10" y="170" width="180" height="30" as="geometry" />
          </mxCell>
        </UserObject>
        <mxCell id="6PC8tyypkYT5ATof5jHP-46" value="Store in local DB" style="whiteSpace=wrap;html=1;" vertex="1" parent="6PC8tyypkYT5ATof5jHP-40">
          <mxGeometry x="10" y="220" width="180" height="30" as="geometry" />
        </mxCell>
        <mxCell id="6PC8tyypkYT5ATof5jHP-48" value="Vector database" style="whiteSpace=wrap;html=1;" vertex="1" parent="6PC8tyypkYT5ATof5jHP-40">
          <mxGeometry x="10" y="270" width="180" height="30" as="geometry" />
        </mxCell>
      </root>
    </mxGraphModel>
  </diagram>
</mxfile>
